<svg xmlns="http://www.w3.org/2000/svg" viewBox="0 0 64 64" role="img" aria-label="Cute shield favicon">
  <rect width="64" height="64" rx="16" fill="#0f172a"/>
  <path d="M32 8 18 14v12c0 10.2 5.8 18.1 14 24 8.2-5.9 14-13.8 14-24V14L32 8Z" fill="#8b5cf6"/>
  <path d="M32 18 23 22v8c0 6.4 3.4 11.7 9 15 5.6-3.3 9-8.6 9-15v-8l-9-4Z" fill="#f8fafc"/>
  <path d="M25 31c1.8 2.2 2.6 3.5 3.2 5.2 1.2-2 2.4-3.6 4.4-5.4 2.1-1.8 4.6-2.8 7.2-3.2-1.4 2.6-3.1 4.6-6.2 6.8-1.7 1.2-3.2 2.1-4.6 3.8-1.1-2.1-2.2-3.3-4.2-5.2-1.6-1.5-2.8-2.2-4.8-3.2 2.8-.8 4.7-.4 6.2 1.2Z" fill="#f472b6"/>
  <circle cx="49" cy="17" r="4" fill="#34d399"/>
  <circle cx="17" cy="48" r="3" fill="#fde68a"/>
</svg>
